<svg width="19" height="23" viewBox="0 0 19 23" fill="none" xmlns="http://www.w3.org/2000/svg">
<path d="M13.6446 0C13.6446 0 12.0087 0.0396226 10.5087 1.53962C9.00871 3.03962 9.2617 5.06037 9.2617 5.06037C9.2617 5.06037 10.7466 5.33189 12.3314 3.74716C13.9161 2.16244 13.6446 0 13.6446 0Z" fill="#0F172A"/>
<path d="M9.43311 6.33948C8.32744 6.33191 7.64824 5.37721 5.76519 5.37721C4.07084 5.37721 2.37232 6.47039 1.6501 7.52815C0.931235 8.58098 0.308594 9.7357 0.308594 12.0791C0.308594 14.4225 1.43691 18.4527 4.21144 21.181C4.6866 21.6482 5.31558 21.9994 6.03313 22.0212C7.3237 22.0602 8.11615 21.0942 9.74634 21.0942C11.3765 21.0942 11.8671 22.0212 13.3388 22.0212C14.008 22.0212 14.7712 21.7164 15.5124 20.9282C16.4633 19.9169 17.6433 17.9907 18.2444 16.1432C18.2444 16.1432 15.2344 14.9808 15.2708 11.63C15.301 8.85268 17.6595 7.48663 17.6595 7.48663C17.6595 7.48663 16.2821 5.29041 13.3539 5.29041C11.3312 5.30553 10.4255 6.34627 9.43311 6.33948Z" fill="#0F172A"/>
</svg>
